<mxfile host="app.diagrams.net" modified="2023-12-11T07:41:45.712Z" agent="Mozilla/5.0 (Windows NT 10.0; Win64; x64) AppleWebKit/537.36 (KHTML, like Gecko) Chrome/119.0.6045.160 Safari/537.36" etag="kvmAaw6vZNB5SBRv9_pY" version="22.1.7" type="github">
  <diagram name="第 1 页" id="r8ZtHVtC3mXbOPZH1cJQ">
    <mxGraphModel dx="979" dy="595" grid="1" gridSize="10" guides="1" tooltips="1" connect="1" arrows="1" fold="1" page="1" pageScale="1" pageWidth="827" pageHeight="1169" math="0" shadow="0">
      <root>
        <mxCell id="0" />
        <mxCell id="1" parent="0" />
        <mxCell id="xe99l6hSY67nhleKCdJc-2" value="研发工时" style="whiteSpace=wrap;html=1;rounded=1;arcSize=50;align=center;verticalAlign=middle;strokeWidth=1;autosize=1;spacing=4;treeFolding=1;treeMoving=1;newEdgeStyle={&quot;edgeStyle&quot;:&quot;entityRelationEdgeStyle&quot;,&quot;startArrow&quot;:&quot;none&quot;,&quot;endArrow&quot;:&quot;none&quot;,&quot;segment&quot;:10,&quot;curved&quot;:1,&quot;sourcePerimeterSpacing&quot;:0,&quot;targetPerimeterSpacing&quot;:0};fillColor=#ffe6cc;strokeColor=#d79b00;" vertex="1" parent="1">
          <mxGeometry x="265" y="310" width="90" height="30" as="geometry" />
        </mxCell>
        <mxCell id="xe99l6hSY67nhleKCdJc-3" value="" style="edgeStyle=entityRelationEdgeStyle;startArrow=none;endArrow=none;segment=10;curved=1;sourcePerimeterSpacing=0;targetPerimeterSpacing=0;rounded=0;exitX=1.019;exitY=0.289;exitDx=0;exitDy=0;exitPerimeter=0;" edge="1" target="xe99l6hSY67nhleKCdJc-2" parent="1" source="xe99l6hSY67nhleKCdJc-4">
          <mxGeometry relative="1" as="geometry">
            <mxPoint x="210" y="320" as="sourcePoint" />
            <Array as="points">
              <mxPoint x="210" y="400" />
              <mxPoint x="212" y="400" />
            </Array>
          </mxGeometry>
        </mxCell>
        <mxCell id="xe99l6hSY67nhleKCdJc-4" value="工时" style="ellipse;whiteSpace=wrap;html=1;align=center;newEdgeStyle={&quot;edgeStyle&quot;:&quot;entityRelationEdgeStyle&quot;,&quot;startArrow&quot;:&quot;none&quot;,&quot;endArrow&quot;:&quot;none&quot;,&quot;segment&quot;:10,&quot;curved&quot;:1,&quot;sourcePerimeterSpacing&quot;:0,&quot;targetPerimeterSpacing&quot;:0};treeFolding=1;treeMoving=1;" vertex="1" parent="1">
          <mxGeometry x="110" y="380" width="100" height="40" as="geometry" />
        </mxCell>
        <mxCell id="xe99l6hSY67nhleKCdJc-6" value="实施工时" style="whiteSpace=wrap;html=1;rounded=1;arcSize=50;align=center;verticalAlign=middle;strokeWidth=1;autosize=1;spacing=4;treeFolding=1;treeMoving=1;newEdgeStyle={&quot;edgeStyle&quot;:&quot;entityRelationEdgeStyle&quot;,&quot;startArrow&quot;:&quot;none&quot;,&quot;endArrow&quot;:&quot;none&quot;,&quot;segment&quot;:10,&quot;curved&quot;:1,&quot;sourcePerimeterSpacing&quot;:0,&quot;targetPerimeterSpacing&quot;:0};" vertex="1" parent="1">
          <mxGeometry x="265" y="438" width="90" height="30" as="geometry" />
        </mxCell>
        <mxCell id="xe99l6hSY67nhleKCdJc-7" value="" style="edgeStyle=entityRelationEdgeStyle;startArrow=none;endArrow=none;segment=10;curved=1;sourcePerimeterSpacing=0;targetPerimeterSpacing=0;rounded=0;exitX=0.996;exitY=0.646;exitDx=0;exitDy=0;exitPerimeter=0;" edge="1" target="xe99l6hSY67nhleKCdJc-6" parent="1" source="xe99l6hSY67nhleKCdJc-4">
          <mxGeometry relative="1" as="geometry">
            <mxPoint x="230" y="480" as="sourcePoint" />
          </mxGeometry>
        </mxCell>
        <mxCell id="xe99l6hSY67nhleKCdJc-15" value="项目" style="ellipse;whiteSpace=wrap;html=1;align=center;newEdgeStyle={&quot;edgeStyle&quot;:&quot;entityRelationEdgeStyle&quot;,&quot;startArrow&quot;:&quot;none&quot;,&quot;endArrow&quot;:&quot;none&quot;,&quot;segment&quot;:10,&quot;curved&quot;:1,&quot;sourcePerimeterSpacing&quot;:0,&quot;targetPerimeterSpacing&quot;:0};treeFolding=1;treeMoving=1;" vertex="1" parent="1">
          <mxGeometry x="110" y="150" width="100" height="40" as="geometry" />
        </mxCell>
        <mxCell id="xe99l6hSY67nhleKCdJc-20" value="研发项目" style="whiteSpace=wrap;html=1;rounded=1;arcSize=50;align=center;verticalAlign=middle;strokeWidth=1;autosize=1;spacing=4;treeFolding=1;treeMoving=1;newEdgeStyle={&quot;edgeStyle&quot;:&quot;entityRelationEdgeStyle&quot;,&quot;startArrow&quot;:&quot;none&quot;,&quot;endArrow&quot;:&quot;none&quot;,&quot;segment&quot;:10,&quot;curved&quot;:1,&quot;sourcePerimeterSpacing&quot;:0,&quot;targetPerimeterSpacing&quot;:0};fillColor=#ffe6cc;strokeColor=#d79b00;" vertex="1" parent="1">
          <mxGeometry x="260" y="110" width="90" height="30" as="geometry" />
        </mxCell>
        <mxCell id="xe99l6hSY67nhleKCdJc-21" value="" style="edgeStyle=entityRelationEdgeStyle;startArrow=none;endArrow=none;segment=10;curved=1;sourcePerimeterSpacing=0;targetPerimeterSpacing=0;rounded=0;exitX=1.007;exitY=0.616;exitDx=0;exitDy=0;exitPerimeter=0;" edge="1" target="xe99l6hSY67nhleKCdJc-20" parent="1" source="xe99l6hSY67nhleKCdJc-15">
          <mxGeometry relative="1" as="geometry">
            <mxPoint x="260" y="230" as="sourcePoint" />
          </mxGeometry>
        </mxCell>
        <mxCell id="xe99l6hSY67nhleKCdJc-22" value="实施项目" style="whiteSpace=wrap;html=1;rounded=1;arcSize=50;align=center;verticalAlign=middle;strokeWidth=1;autosize=1;spacing=4;treeFolding=1;treeMoving=1;newEdgeStyle={&quot;edgeStyle&quot;:&quot;entityRelationEdgeStyle&quot;,&quot;startArrow&quot;:&quot;none&quot;,&quot;endArrow&quot;:&quot;none&quot;,&quot;segment&quot;:10,&quot;curved&quot;:1,&quot;sourcePerimeterSpacing&quot;:0,&quot;targetPerimeterSpacing&quot;:0};" vertex="1" parent="1">
          <mxGeometry x="260" y="178" width="90" height="30" as="geometry" />
        </mxCell>
        <mxCell id="xe99l6hSY67nhleKCdJc-23" value="" style="edgeStyle=entityRelationEdgeStyle;startArrow=none;endArrow=none;segment=10;curved=1;sourcePerimeterSpacing=0;targetPerimeterSpacing=0;rounded=0;exitX=1;exitY=0.685;exitDx=0;exitDy=0;exitPerimeter=0;" edge="1" target="xe99l6hSY67nhleKCdJc-22" parent="1" source="xe99l6hSY67nhleKCdJc-15">
          <mxGeometry relative="1" as="geometry">
            <mxPoint x="225" y="220" as="sourcePoint" />
          </mxGeometry>
        </mxCell>
        <mxCell id="xe99l6hSY67nhleKCdJc-36" style="rounded=0;orthogonalLoop=1;jettySize=auto;html=1;entryX=1;entryY=0.75;entryDx=0;entryDy=0;" edge="1" parent="1" source="xe99l6hSY67nhleKCdJc-25" target="xe99l6hSY67nhleKCdJc-20">
          <mxGeometry relative="1" as="geometry" />
        </mxCell>
        <mxCell id="xe99l6hSY67nhleKCdJc-47" style="edgeStyle=none;rounded=0;orthogonalLoop=1;jettySize=auto;html=1;" edge="1" parent="1" source="xe99l6hSY67nhleKCdJc-25">
          <mxGeometry relative="1" as="geometry">
            <mxPoint x="360" y="330" as="targetPoint" />
          </mxGeometry>
        </mxCell>
        <mxCell id="xe99l6hSY67nhleKCdJc-25" value="研发人员" style="shape=umlActor;verticalLabelPosition=bottom;verticalAlign=top;html=1;fillColor=#ffe6cc;strokeColor=#d79b00;" vertex="1" parent="1">
          <mxGeometry x="610" y="110" width="30" height="60" as="geometry" />
        </mxCell>
        <mxCell id="xe99l6hSY67nhleKCdJc-43" style="edgeStyle=none;rounded=0;orthogonalLoop=1;jettySize=auto;html=1;entryX=1;entryY=0.75;entryDx=0;entryDy=0;" edge="1" parent="1" source="xe99l6hSY67nhleKCdJc-28" target="xe99l6hSY67nhleKCdJc-22">
          <mxGeometry relative="1" as="geometry" />
        </mxCell>
        <mxCell id="xe99l6hSY67nhleKCdJc-48" style="edgeStyle=none;rounded=0;orthogonalLoop=1;jettySize=auto;html=1;entryX=1;entryY=0;entryDx=0;entryDy=0;" edge="1" parent="1" source="xe99l6hSY67nhleKCdJc-28" target="xe99l6hSY67nhleKCdJc-6">
          <mxGeometry relative="1" as="geometry" />
        </mxCell>
        <mxCell id="xe99l6hSY67nhleKCdJc-28" value="实施人员" style="shape=umlActor;verticalLabelPosition=bottom;verticalAlign=top;html=1;" vertex="1" parent="1">
          <mxGeometry x="610" y="240" width="30" height="60" as="geometry" />
        </mxCell>
        <mxCell id="xe99l6hSY67nhleKCdJc-46" style="edgeStyle=none;rounded=0;orthogonalLoop=1;jettySize=auto;html=1;entryX=1;entryY=1;entryDx=0;entryDy=0;" edge="1" parent="1" source="xe99l6hSY67nhleKCdJc-30" target="xe99l6hSY67nhleKCdJc-44">
          <mxGeometry relative="1" as="geometry" />
        </mxCell>
        <mxCell id="xe99l6hSY67nhleKCdJc-30" value="售后人员" style="shape=umlActor;verticalLabelPosition=bottom;verticalAlign=top;html=1;" vertex="1" parent="1">
          <mxGeometry x="610" y="350" width="30" height="60" as="geometry" />
        </mxCell>
        <mxCell id="xe99l6hSY67nhleKCdJc-42" style="edgeStyle=none;rounded=0;orthogonalLoop=1;jettySize=auto;html=1;" edge="1" parent="1" source="xe99l6hSY67nhleKCdJc-35">
          <mxGeometry relative="1" as="geometry">
            <mxPoint x="340" y="210" as="targetPoint" />
          </mxGeometry>
        </mxCell>
        <mxCell id="xe99l6hSY67nhleKCdJc-35" value="客户" style="ellipse;whiteSpace=wrap;html=1;" vertex="1" parent="1">
          <mxGeometry x="414" y="230" width="75" height="30" as="geometry" />
        </mxCell>
        <mxCell id="xe99l6hSY67nhleKCdJc-41" style="edgeStyle=entityRelationEdgeStyle;rounded=0;orthogonalLoop=1;jettySize=auto;html=1;startArrow=none;endArrow=none;segment=10;curved=1;sourcePerimeterSpacing=0;targetPerimeterSpacing=0;entryX=0.231;entryY=-0.052;entryDx=0;entryDy=0;entryPerimeter=0;" edge="1" parent="1">
          <mxGeometry relative="1" as="geometry">
            <mxPoint x="350" y="129" as="sourcePoint" />
            <mxPoint x="431.3249999999998" y="232.44000000000005" as="targetPoint" />
            <Array as="points">
              <mxPoint x="390" y="184" />
            </Array>
          </mxGeometry>
        </mxCell>
        <mxCell id="xe99l6hSY67nhleKCdJc-44" value="售后项目" style="whiteSpace=wrap;html=1;rounded=1;arcSize=50;align=center;verticalAlign=middle;strokeWidth=1;autosize=1;spacing=4;treeFolding=1;treeMoving=1;newEdgeStyle={&quot;edgeStyle&quot;:&quot;entityRelationEdgeStyle&quot;,&quot;startArrow&quot;:&quot;none&quot;,&quot;endArrow&quot;:&quot;none&quot;,&quot;segment&quot;:10,&quot;curved&quot;:1,&quot;sourcePerimeterSpacing&quot;:0,&quot;targetPerimeterSpacing&quot;:0};" vertex="1" parent="1">
          <mxGeometry x="260" y="230" width="90" height="30" as="geometry" />
        </mxCell>
        <mxCell id="xe99l6hSY67nhleKCdJc-45" value="" style="edgeStyle=entityRelationEdgeStyle;startArrow=none;endArrow=none;segment=10;curved=1;sourcePerimeterSpacing=0;targetPerimeterSpacing=0;rounded=0;exitX=1;exitY=0.5;exitDx=0;exitDy=0;" edge="1" target="xe99l6hSY67nhleKCdJc-44" parent="1" source="xe99l6hSY67nhleKCdJc-15">
          <mxGeometry relative="1" as="geometry">
            <mxPoint x="230" y="274" as="sourcePoint" />
          </mxGeometry>
        </mxCell>
      </root>
    </mxGraphModel>
  </diagram>
</mxfile>
